ModelForces
version=1
nRows=4
nColumns=155
inDegrees=no

This file contains the forces exerted on a model during a simulation.

A force is a generalized force, meaning that it can be either a force (N) or a torque (Nm).

Units are S.I. units (second, meters, Newtons, ...)
Angles are in degrees.

endheader
time	glut_med1_r	glut_med2_r	glut_med3_r	glut_min1_r	glut_min2_r	glut_min3_r	semimem_r	semiten_r	bifemlh_r	bifemsh_r	sar_r	add_long_r	add_brev_r	add_mag1_r	add_mag2_r	add_mag3_r	tfl_r	pect_r	grac_r	glut_max1_r	glut_max2_r	glut_max3_r	iliacus_r	psoas_r	quad_fem_r	gem_r	peri_r	rect_fem_r	vas_med_r	vas_int_r	vas_lat_r	med_gas_r	lat_gas_r	soleus_r	tib_post_r	flex_dig_r	flex_hal_r	tib_ant_r	per_brev_r	per_long_r	per_tert_r	ext_dig_r	ext_hal_r	glut_med1_l	glut_med2_l	glut_med3_l	glut_min1_l	glut_min2_l	glut_min3_l	semimem_l	semiten_l	bifemlh_l	bifemsh_l	sar_l	add_long_l	add_brev_l	add_mag1_l	add_mag2_l	add_mag3_l	tfl_l	pect_l	grac_l	glut_max1_l	glut_max2_l	glut_max3_l	iliacus_l	psoas_l	quad_fem_l	gem_l	peri_l	rect_fem_l	vas_med_l	vas_int_l	vas_lat_l	med_gas_l	lat_gas_l	soleus_l	tib_post_l	flex_dig_l	flex_hal_l	tib_ant_l	per_brev_l	per_long_l	per_tert_l	ext_dig_l	ext_hal_l	ercspn_r	ercspn_l	intobl_r	intobl_l	extobl_r	extobl_l	femur_lat_meniscii_r.femur_lat_r.force.X	femur_lat_meniscii_r.femur_lat_r.force.Y	femur_lat_meniscii_r.femur_lat_r.force.Z	femur_lat_meniscii_r.femur_lat_r.torque.X	femur_lat_meniscii_r.femur_lat_r.torque.Y	femur_lat_meniscii_r.femur_lat_r.torque.Z	femur_lat_meniscii_r.meniscus_lat_r.force.X	femur_lat_meniscii_r.meniscus_lat_r.force.Y	femur_lat_meniscii_r.meniscus_lat_r.force.Z	femur_lat_meniscii_r.meniscus_lat_r.torque.X	femur_lat_meniscii_r.meniscus_lat_r.torque.Y	femur_lat_meniscii_r.meniscus_lat_r.torque.Z	femur_med_meniscii_r.femur_med_r.force.X	femur_med_meniscii_r.femur_med_r.force.Y	femur_med_meniscii_r.femur_med_r.force.Z	femur_med_meniscii_r.femur_med_r.torque.X	femur_med_meniscii_r.femur_med_r.torque.Y	femur_med_meniscii_r.femur_med_r.torque.Z	femur_med_meniscii_r.meniscus_med_r.force.X	femur_med_meniscii_r.meniscus_med_r.force.Y	femur_med_meniscii_r.meniscus_med_r.force.Z	femur_med_meniscii_r.meniscus_med_r.torque.X	femur_med_meniscii_r.meniscus_med_r.torque.Y	femur_med_meniscii_r.meniscus_med_r.torque.Z	femur_med_tibia_r.tibia_upper_r.force.X	femur_med_tibia_r.tibia_upper_r.force.Y	femur_med_tibia_r.tibia_upper_r.force.Z	femur_med_tibia_r.tibia_upper_r.torque.X	femur_med_tibia_r.tibia_upper_r.torque.Y	femur_med_tibia_r.tibia_upper_r.torque.Z	femur_med_tibia_r.femur_med_r.force.X	femur_med_tibia_r.femur_med_r.force.Y	femur_med_tibia_r.femur_med_r.force.Z	femur_med_tibia_r.femur_med_r.torque.X	femur_med_tibia_r.femur_med_r.torque.Y	femur_med_tibia_r.femur_med_r.torque.Z	femur_lat_tibia_r.tibia_upper_r.force.X	femur_lat_tibia_r.tibia_upper_r.force.Y	femur_lat_tibia_r.tibia_upper_r.force.Z	femur_lat_tibia_r.tibia_upper_r.torque.X	femur_lat_tibia_r.tibia_upper_r.torque.Y	femur_lat_tibia_r.tibia_upper_r.torque.Z	femur_lat_tibia_r.femur_lat_r.force.X	femur_lat_tibia_r.femur_lat_r.force.Y	femur_lat_tibia_r.femur_lat_r.force.Z	femur_lat_tibia_r.femur_lat_r.torque.X	femur_lat_tibia_r.femur_lat_r.torque.Y	femur_lat_tibia_r.femur_lat_r.torque.Z	aACL_R	pACL_R	aPCL_R	pPCL_R	aMCL_R	mMCL_R	pMCL_R	aLCL_R	mLCL_R	pLCL_R	aPCL_L	pPCL_L	aMCL_L	aLCL_L
      0.20959827	      9.71288372	      7.14872842	      7.67429488	      3.32198678	      3.89879698	      4.10651236	      0.00000000	    163.83272117	    182.33700838	    340.78767373	    122.40449709	      7.10195338	      5.16312006	      3.67725851	      3.10844610	      5.17193882	      3.31546174	      2.80110433	     92.69937058	      4.61365007	      7.01587356	      5.25896490	     25.34891815	     16.02481281	      4.55324585	      3.29437174	      5.57159539	    113.96596684	     40.72870324	     27.08807216	     56.15369012	      0.00000000	      0.00000000	      0.00000000	      0.00000000	      0.00000000	      0.00000000	     35.68740305	      1.35151388	      3.11728348	     23.02207018	     48.94074187	     11.78618020	      9.71288372	      7.14872842	      7.67429488	      3.32198678	      3.89879698	      4.10651236	     10.58736370	      5.24283667	     10.25992244	      9.06121131	      1.89676403	      7.10195338	      5.16312006	      3.67725851	      3.10844610	      5.17193882	      4.83052072	      2.80110433	      1.95297007	      4.61365007	      7.01587356	      5.25896490	     25.34891815	     16.02481281	      4.55324585	      3.29437174	      5.57159539	     14.19953678	      0.00000000	      0.00000000	      0.00000000	     19.32892521	      9.02944523	     42.97624851	     47.27330012	      4.17509163	      3.63678848	     11.12626822	      5.88721607	     15.82855908	      2.47880428	      7.87020380	      2.52079194	     31.25831481	     31.25831481	     11.47211554	     11.47211554	     29.02823586	     29.02823586	    166.97008223	    101.35259111	      9.43347049	     -6.08170942	      3.88236896	     66.30413157	   -166.97008223	   -101.35259111	     -9.43347049	      2.62832593	     -4.57804379	      2.29418247	      0.04318327	      0.00100188	     -0.02700492	      0.01075141	     -0.00067088	      0.01716711	     -0.04318327	     -0.00100188	      0.02700492	     -0.00009861	      0.00128957	     -0.00010939	   -892.76872094	   -367.84992008	    316.49846553	     -8.28138048	     21.88127683	      2.26585425	    892.76872094	    367.84992008	   -316.49846553	    134.07048091	    -15.64871952	    359.79978740	   -298.73223422	   -133.25025569	    -81.55358448	      4.34037957	    -10.32610988	      0.97636898	    298.73223422	    133.25025569	     81.55358448	    -36.15235365	      7.32728855	    120.45122815	      0.89666641	      0.00000000	    964.37452341	    609.14888469	     23.93529274	      9.72376917	      0.00000000	      0.00000000	      0.00000000	      0.00000000	      0.00000000	      0.00000000	      0.00000001	      0.00000000
      0.20960544	      9.71268037	      7.14858947	      7.67414388	      3.32192493	      3.89872960	      4.10642639	      0.00000000	    163.83763772	    182.34372869	    340.79613929	    122.40538594	      7.10181372	      5.16302482	      3.67718755	      3.10838459	      5.17182727	      3.31542122	      2.80105182	     92.70082575	      4.61356021	      7.01573655	      5.25886045	     25.34866386	     16.02452359	      4.55315921	      3.29433005	      5.57148397	    113.98218686	     40.73055670	   6198.15168173	     56.15575808	      0.00000000	      0.00000000	      0.00000000	      0.00000000	      0.00000000	      0.00000000	     35.68724722	      1.35102160	      3.11659899	     23.02029770	     48.93744725	     11.78520799	      9.71268037	      7.14858947	      7.67414388	      3.32192493	      3.89872960	      4.10642639	     10.58748249	      5.24272756	     10.25968599	      9.06103873	      1.89672888	      7.10181372	      5.16302482	      3.67718755	      3.10838459	      5.17182727	      4.83045169	      2.80105182	      1.95293324	      4.61356021	      7.01573655	      5.25886045	     25.34866386	     16.02452359	      4.55315921	      3.29433005	      5.57148397	     14.19920807	      0.00000000	      0.00000000	      0.00000000	     19.32858288	      9.02927552	     42.97523224	     47.27285491	      4.17487741	      3.63659758	     11.12601874	      5.88707423	     15.82826697	      2.47875966	      7.87010304	      2.52076217	     31.25773150	     31.25773150	     11.47188322	     11.47188322	     29.02802641	     29.02802641	    163.67402911	    101.49888297	     10.29248984	     -6.43296641	      3.81480323	     64.96746156	   -163.67402911	   -101.49888297	    -10.29248984	      2.64119299	     -4.52513153	      2.33523904	      0.04211306	      0.00108750	     -0.02636513	      0.01049778	     -0.00065451	      0.01674067	     -0.04211306	     -0.00108750	      0.02636513	     -0.00009704	      0.00125867	     -0.00010264	   -891.39569358	   -369.55901259	    315.41430118	     -8.28459615	     21.82457678	      2.35208634	    891.39569358	    369.55901259	   -315.41430118	    133.65115582	    -15.61774759	    359.21998141	   -298.17759355	   -133.94461293	    -81.96042043	      4.36253564	    -10.32949819	      1.01329279	    298.17759355	    133.94461293	     81.96042043	    -36.33322355	      7.32099167	    120.21492903	      0.61882858	      0.00000000	    965.17707175	    611.25055388	     24.67478855	     10.64579198	      0.00000000	      0.00000000	      0.00000000	      0.00000000	      0.00000000	      0.00000000	      0.00000001	      0.00000000
      0.20961260	      9.71247704	      7.14845054	      7.67399288	      3.32186308	      3.89866223	      4.10634043	      0.00000000	    163.83904795	    182.34571655	    340.78422390	    122.40386252	      7.10167406	      5.16292960	      3.67711661	      3.10832308	      5.17171574	      3.31545275	      2.80099931	     92.69999130	      4.61347036	      7.01559956	      5.25875602	     25.34840961	     16.02423440	      4.55307257	      3.29428837	      5.57137255	    113.99456118	     40.72805677	   3943.59839976	     56.15209799	      0.00000000	      0.00000000	      0.00000000	      0.00000000	      0.00000000	      0.00000000	     35.68735634	      1.35048701	      3.11586422	     23.01852079	     48.93424651	     11.78427507	      9.71247704	      7.14845054	      7.67399288	      3.32186308	      3.89866223	      4.10634043	     10.58760113	      5.24261847	     10.25944956	      9.06086616	      1.89669374	      7.10167406	      5.16292960	      3.67711661	      3.10832308	      5.17171574	      4.83038266	      2.80099931	      1.95289641	      4.61347036	      7.01559956	      5.25875602	     25.34840961	     16.02423440	      4.55307257	      3.29428837	      5.57137255	     14.19887938	      0.00000000	      0.00000000	      0.00000000	     19.32824055	      9.02910582	     42.97421606	     47.27240974	      4.17466322	      3.63640670	     11.12576928	      5.88693240	     15.82797489	      2.47871503	      7.87000228	      2.52073240	     31.25714825	     31.25714825	     11.47165092	     11.47165092	     29.02781698	     29.02781698	    149.09033149	    101.63606008	     13.88803938	     -7.89198339	      3.51323053	     59.06041530	   -149.09033149	   -101.63606008	    -13.88803938	      2.68255540	     -4.28269622	      2.49476789	      0.03746260	      0.00139601	     -0.02357488	      0.00939107	     -0.00058327	      0.01488830	     -0.03746260	     -0.00139601	      0.02357488	     -0.00008990	      0.00112402	     -0.00007589	   -885.21216529	   -376.84564138	    310.32416479	     -8.29442541	     21.56176314	      2.71551579	    885.21216529	    376.84564138	   -310.32416479	    131.67322953	    -15.47663644	    356.61702892	   -295.70420070	   -136.93469605	    -83.73073149	      4.45883434	    -10.34243918	      1.17063411	    295.70420070	    136.93469605	     83.73073149	    -37.11991726	      7.29233008	    119.16374017	     -0.59509286	      0.00000000	    968.55540829	    620.43884653	     27.96776213	     14.74201173	      0.00000000	      0.00000000	      0.00000000	      0.00000000	      0.00000000	      0.00000000	      0.00000001	      0.00000000
      0.20964323	      9.71160792	      7.14785667	      7.67334746	      3.32159873	      3.89837425	      4.10597300	      0.00000000	    163.81827099	    182.31781462	    340.57887118	    122.37916838	      7.10107712	      5.16252256	      3.67681335	      3.10806017	      5.17123897	      3.31614643	      2.80077488	     92.67907246	      4.61308629	      7.01501398	      5.25830961	     25.34732279	     16.02299827	      4.55270226	      3.29411018	      5.57089624	    114.02419567	     40.68438870	    495.01086369	     56.09480406	      0.00000000	      0.00000000	      0.00000000	      0.00000000	      0.00000000	      0.00000000	     35.68983855	      1.34787913	      3.11233727	     23.01089115	     48.92127512	     11.78058527	      9.71160792	      7.14785667	      7.67334746	      3.32159873	      3.89837425	      4.10597300	     10.58810665	      5.24215214	     10.25843895	      9.06012853	      1.89654350	      7.10107712	      5.16252256	      3.67681335	      3.10806017	      5.17123897	      4.83008760	      2.80077488	      1.95273899	      4.61308629	      7.01501398	      5.25830961	     25.34732279	     16.02299827	      4.55270226	      3.29411018	      5.57089624	     14.19747441	      0.00000000	      0.00000000	      0.00000000	     19.32677693	      9.02838027	     42.96987217	     47.27050683	      4.17374759	      3.63559079	     11.12470297	      5.88632614	     15.82672633	      2.47852429	      7.86957143	      2.52060507	     31.25465517	     31.25465517	     11.47065796	     11.47065796	     29.02692178	     29.02692178	    127.74761161	    100.61075326	     18.13157758	     -9.58569815	      3.05904637	     50.43099732	   -127.74761161	   -100.61075326	    -18.13157758	      2.69994244	     -3.88749316	      2.68018389	      0.03022037	      0.00163957	     -0.01916663	      0.00764008	     -0.00047179	      0.01200558	     -0.03022037	     -0.00163957	      0.01916663	     -0.00007669	      0.00091208	     -0.00004259	   -874.51026145	   -386.40318361	    302.93679292	     -8.29580504	     21.16077804	      3.23336910	    874.51026145	    386.40318361	   -302.93679292	    128.78823561	    -15.24746992	    352.14369490	   -291.81177636	   -140.82135448	    -86.02356761	      4.58335010	    -10.34320155	      1.38756307	    291.81177636	    140.82135448	     86.02356761	    -38.13886371	      7.24079952	    117.51913626	     -2.32413809	      0.00000000	    973.71692168	    633.99052808	     32.77669331	     20.71533657	      0.00000000	      0.00000000	      0.00000000	      0.00000000	      0.00000000	      0.00000000	      0.00000001	      0.00000000
